<svg width="48" height="48" viewBox="0 0 48 48" fill="none" xmlns="http://www.w3.org/2000/svg">
<rect width="48" height="48" rx="8" fill="#FF9F38"/>
<path fill-rule="evenodd" clip-rule="evenodd" d="M19.4408 13.5107L18.4909 15.6004H15.6C13.8603 15.6004 12.4088 16.8344 12.0731 18.4749C12.0252 18.7092 12 18.9519 12 19.2004V21.0004C12 22.6572 13.3431 24.0004 15 24.0004H19.4048C19.8991 22.6022 21.2325 21.6004 22.8 21.6004H25.2C26.7675 21.6004 28.101 22.6022 28.5952 24.0004H33C34.6569 24.0004 36 22.6572 36 21.0004V19.2004C36 17.2122 34.3882 15.6004 32.4 15.6004H29.5091L28.5592 13.5107C27.9751 12.2255 26.6936 11.4004 25.2819 11.4004H22.7181C21.3064 11.4004 20.0249 12.2255 19.4408 13.5107ZM25.2819 13.8004H22.7181C22.2475 13.8004 21.8204 14.0754 21.6256 14.5038L21.1272 15.6004H26.8728L26.3744 14.5038C26.1796 14.0754 25.7525 13.8004 25.2819 13.8004Z" fill="white"/>
<path d="M19.4048 26.4004H15C14.0574 26.4004 13.1712 26.1589 12.3999 25.7343C12.2247 25.6379 12 25.7594 12 25.9592V32.4004C12 34.3886 13.6118 36.0004 15.6 36.0004H32.4C34.3882 36.0004 36 34.3886 36 32.4004V25.9592C36 25.7594 35.7753 25.6379 35.6001 25.7343C34.8288 26.1589 33.9426 26.4004 33 26.4004H28.5952C28.101 27.7986 26.7675 28.8004 25.2 28.8004H22.8C21.2325 28.8004 19.8991 27.7986 19.4048 26.4004Z" fill="white"/>
<path d="M22.8 24.0004C22.1373 24.0004 21.6 24.5376 21.6 25.2004C21.6 25.8631 22.1373 26.4004 22.8 26.4004H25.2C25.8627 26.4004 26.4 25.8631 26.4 25.2004C26.4 24.5376 25.8627 24.0004 25.2 24.0004H22.8Z" fill="white"/>
</svg>
