<svg width="48" height="48" viewBox="0 0 48 48" fill="none" xmlns="http://www.w3.org/2000/svg">
<rect width="48" height="48" rx="8" fill="#6C5DD3"/>
<g filter="url(#filter0_d_1742_134013)">
<rect x="9.59961" y="9.59961" width="28.8" height="28.8" fill="#6C5DD3"/>
<path d="M16.9402 36.8009C16.3085 36.8273 15.6782 36.7224 15.0891 36.493C14.5 36.2636 13.9648 35.9146 13.5174 35.4681C13.0699 35.0215 12.7198 34.487 12.4892 33.8984C12.2586 33.3097 12.1525 32.6796 12.1776 32.0479C12.0255 30.1695 11.9711 28.2844 12.0144 26.4003C11.9717 24.5168 12.0252 22.6325 12.1747 20.7545C12.1464 20.1228 12.2499 19.4922 12.4786 18.9027C12.7073 18.3132 13.0561 17.7777 13.503 17.3304C13.9499 16.8831 14.485 16.5336 15.0742 16.3044C15.6635 16.0751 16.2941 15.971 16.9258 15.9987C18.8048 15.8498 20.6901 15.797 22.5744 15.8403H22.6023C22.7283 15.8421 22.8528 15.8687 22.9686 15.9187C23.0844 15.9686 23.1892 16.0408 23.277 16.1313C23.3649 16.2217 23.434 16.3286 23.4806 16.4457C23.5271 16.5629 23.5502 16.6881 23.5484 16.8142C23.5465 16.9402 23.5198 17.0647 23.4699 17.1805C23.42 17.2963 23.3478 17.4011 23.2573 17.4889C23.1669 17.5768 23.06 17.646 22.9429 17.6925C22.8257 17.7391 22.7005 17.7621 22.5744 17.7603C20.1792 17.7603 18.3965 17.766 17.1408 17.9091C16.7264 17.8569 16.3055 17.9001 15.9104 18.0355C15.5153 18.171 15.1564 18.3949 14.8612 18.6904C14.566 18.9858 14.3422 19.3449 14.207 19.7401C14.0718 20.1353 14.0289 20.5561 14.0813 20.9705C13.9392 22.2262 13.9344 24.0079 13.9344 26.4003C13.9344 28.7926 13.9431 30.5743 14.0861 31.8291C14.0353 32.2443 14.0798 32.6656 14.2163 33.0611C14.3529 33.4565 14.5778 33.8156 14.874 34.1109C15.1702 34.4063 15.5299 34.6302 15.9257 34.7657C16.3215 34.9011 16.743 34.9445 17.1581 34.8924C18.4118 35.0345 20.1908 35.0403 22.5764 35.0403C24.962 35.0403 26.7418 35.0335 27.9955 34.8905C28.4112 34.9418 28.8332 34.8977 29.2293 34.7614C29.6253 34.6252 29.9851 34.4005 30.2813 34.1043C30.5775 33.8081 30.8023 33.4483 30.9385 33.0522C31.0747 32.6561 31.1188 32.2342 31.0675 31.8185C31.2115 30.5648 31.2192 28.7839 31.2192 26.3964V26.3695C31.2228 26.1149 31.3274 25.8722 31.5099 25.6947C31.6925 25.5171 31.938 25.4194 32.1926 25.423C32.4473 25.4265 32.69 25.5311 32.8675 25.7137C33.045 25.8962 33.1428 26.1418 33.1392 26.3964C33.1822 28.278 33.1268 30.1606 32.9731 32.0364C32.9989 32.6683 32.8934 33.2986 32.6632 33.8876C32.433 34.4766 32.0831 35.0114 31.6358 35.4584C31.1884 35.9053 30.6532 36.2546 30.064 36.4842C29.4748 36.7138 28.8443 36.8187 28.2125 36.7923C26.3373 36.9461 24.4554 37.0021 22.5744 36.9603H22.2864C20.5028 36.9992 18.7183 36.946 16.9402 36.8009ZM21.6144 28.3203C21.3598 28.3203 21.1156 28.2191 20.9356 28.0391C20.7556 27.859 20.6544 27.6149 20.6544 27.3603V24.4803C20.6542 24.2258 20.755 23.9817 20.9347 23.8015L32.4547 12.2815C32.5439 12.1923 32.6498 12.1215 32.7663 12.0732C32.8829 12.0248 33.0078 12 33.134 12C33.2601 12 33.385 12.0248 33.5016 12.0732C33.6181 12.1215 33.724 12.1923 33.8131 12.2815L36.6931 15.1615C36.8731 15.3416 36.9742 15.5857 36.9742 15.8403C36.9742 16.0948 36.8731 16.339 36.6931 16.519L25.1731 28.039C24.9931 28.219 24.749 28.3202 24.4944 28.3203H21.6144ZM22.5744 24.8777V26.4003H24.097L31.777 18.7203L30.2544 17.1977L22.5744 24.8777ZM31.6119 15.8403L33.1344 17.3628L34.656 15.8403L33.1344 14.3177L31.6119 15.8403Z" fill="white"/>
<rect x="10.0996" y="10.0996" width="27.8" height="27.8" stroke="#6C5DD3"/>
</g>
<defs>
<filter id="filter0_d_1742_134013" x="5.59961" y="9.59961" width="36.7998" height="36.8008" filterUnits="userSpaceOnUse" color-interpolation-filters="sRGB">
<feFlood flood-opacity="0" result="BackgroundImageFix"/>
<feColorMatrix in="SourceAlpha" type="matrix" values="0 0 0 0 0 0 0 0 0 0 0 0 0 0 0 0 0 0 127 0" result="hardAlpha"/>
<feOffset dy="4"/>
<feGaussianBlur stdDeviation="2"/>
<feComposite in2="hardAlpha" operator="out"/>
<feColorMatrix type="matrix" values="0 0 0 0 0 0 0 0 0 0 0 0 0 0 0 0 0 0 0.25 0"/>
<feBlend mode="normal" in2="BackgroundImageFix" result="effect1_dropShadow_1742_134013"/>
<feBlend mode="normal" in="SourceGraphic" in2="effect1_dropShadow_1742_134013" result="shape"/>
</filter>
</defs>
</svg>
