<svg width="48" height="48" viewBox="0 0 48 48" fill="none" xmlns="http://www.w3.org/2000/svg">
<rect width="48" height="48" rx="8" fill="#F06A6A"/>
<rect x="10.0996" y="10.0996" width="27.8" height="27.8" fill="#F06A6A"/>
<path fill-rule="evenodd" clip-rule="evenodd" d="M27.6 31.0059L25.3728 24.3255L32.0544 17.6427L27.6 31.0059ZM30.3576 15.9459L23.676 22.6275L16.9944 20.4003L30.3576 15.9459ZM35.988 13.1379C35.982 13.0263 35.9616 12.9183 35.9244 12.8139C35.9124 12.7767 35.8992 12.7407 35.8824 12.7047C35.8248 12.5763 35.7516 12.4551 35.6484 12.3519C35.5452 12.2487 35.424 12.1755 35.2944 12.1179C35.2596 12.1011 35.2248 12.0879 35.1876 12.0759C35.0808 12.0387 34.9716 12.0171 34.8576 12.0111C34.8312 12.0099 34.8072 12.0039 34.7796 12.0039C34.6596 12.0063 34.5384 12.0231 34.4208 12.0615L12.8208 19.2615C12.33 19.4259 12 19.8831 12 20.4003C12 20.9175 12.33 21.3759 12.8208 21.5391L23.0508 24.9495L26.4624 35.1807C26.6256 35.6703 27.0828 36.0003 27.6 36.0003C28.1172 36.0003 28.5744 35.6703 28.7376 35.1807L35.9376 13.5807C35.976 13.4619 35.994 13.3419 35.9952 13.2219C35.9964 13.1931 35.9892 13.1667 35.988 13.1379Z" fill="white"/>
<rect x="10.0996" y="10.0996" width="27.8" height="27.8" stroke="#F06A6A"/>
</svg>
